<?xml version="1.0" encoding="utf-8"?>
<!-- Generator: Adobe Illustrator 22.0.1, SVG Export Plug-In . SVG Version: 6.00 Build 0)  -->
<svg version="1.1" id="Ebene_1" xmlns="http://www.w3.org/2000/svg" xmlns:xlink="http://www.w3.org/1999/xlink" x="0px" y="0px"
	 viewBox="0 0 1303.9 566.9" style="enable-background:new 0 0 1303.9 566.9;" xml:space="preserve">
<style type="text/css">
	.st0{fill:#EC008C;}
</style>
<g>
	<path class="st0" d="M393.6,349.7c0,53,7,87,31,87c12.3,0,21-7.1,38-32.8v-137c-7.6-4.8-16.3-7.2-28-7.2
		C408.8,259.7,393.6,290.1,393.6,349.7z"/>
	<path class="st0" d="M65.9,29v500h1133.9V29H65.9z M550.7,502.2h-67.2l-5.3-35.2c-20.4,29.2-43.2,44.7-76.5,44.7
		c-68.9,0-100.4-66.1-100.4-150.7c0-98.3,40.9-172.2,127.3-172.2c11.7,0,24.5,1.2,33.9,3V55.4h88.2V502.2z M762.1,502.2H575.8v-67.9
		l82.3-167.4H581v-73.3h175.8v69.1l-80.6,166.8h85.8V502.2z M1111.2,502.2h-105.1l-31.5-196.6H974l-28,196.6H843.2
		c-26.9-97.1-52-206.2-65.4-308.6h91.7c8.2,75.1,18.1,146.6,30.4,222.8h0.6l33.3-222.8h91.7l36.2,222.8h0.6
		c13.4-79.8,21.6-150.7,26.9-222.8h84.1C1159.1,296.7,1138.1,399.2,1111.2,502.2z"/>
</g>
</svg>
