<svg xmlns="http://www.w3.org/2000/svg" viewBox="0 0 82.75 36.49"><defs><style>.cls-1{fill:#c7007e;}.cls-2{fill:#fff;}</style></defs><title>Element 1</title><g id="Ebene_2" data-name="Ebene 2"><g id="Ebene_1-2" data-name="Ebene 1"><g id="Ebene_1-2-2" data-name="Ebene 1-2"><rect class="cls-1" width="82.75" height="36.49"/><path class="cls-2" d="M80.86,12.05H74.72c-.38,5.27-1,10.46-2,16.3h0l-2.65-16.3h-6.7L60.94,28.36h0c-.9-5.59-1.62-10.82-2.22-16.31H52a172.76,172.76,0,0,0,4.77,22.59h7.51l2-14.39h0l2.29,14.38h7.68a192.79,192.79,0,0,0,4.53-22.58m-30,22.58V29.31H44.57L50.46,17.1V12.05H37.62v5.36h5.63l-6,12.25v5h13.6ZM29,27.44c-1.23,1.87-1.87,2.4-2.77,2.4-1.75,0-2.26-2.49-2.26-6.37,0-4.36,1.11-6.59,3-6.59a3.64,3.64,0,0,1,2,.53v10Zm6.44,7.19V1.93H29v10a14.53,14.53,0,0,0-2.47-.21c-6.31,0-9.29,5.4-9.29,12.6,0,6.19,2.3,11,7.33,11,2.43,0,4.09-1.13,5.59-3.27l.38,2.57Z"/></g></g></g></svg>